<svg width="200" height="200" viewBox="0 0 200 200" fill="none" xmlns="http://www.w3.org/2000/svg">
  <g clip-path="url(#clip0_123_456)">
    <!-- Map Background -->
    <rect x="30" y="20" width="120" height="160" rx="10" fill="#FFCDD2" stroke="black" stroke-width="2"/>
    
    <!-- Map Roads -->
    <path d="M40 40C60 60 90 50 100 70C110 90 150 110 130 140" stroke="white" stroke-width="6" stroke-linecap="round" stroke-dasharray="2 4"/>
    <path d="M60 30C80 70 70 110 110 130C150 150 140 170 140 170" stroke="white" stroke-width="6" stroke-linecap="round" stroke-dasharray="2 4"/>
    
    <!-- Person sitting -->
    <circle cx="155" cy="90" r="15" fill="#F4D1A0" stroke="black" stroke-width="2"/>
    <path d="M155 105V135" stroke="black" stroke-width="3" stroke-linecap="round"/>
    <path d="M155 135C155 135 140 160 135 160" stroke="black" stroke-width="3" stroke-linecap="round"/>
    <path d="M155 135C155 135 170 160 175 160" stroke="black" stroke-width="3" stroke-linecap="round"/>
    <path d="M140 120H170" stroke="black" stroke-width="3" stroke-linecap="round"/>
    <path d="M150 87C150 87 151 89 155 89C159 89 160 87 160 87" stroke="black" stroke-width="1" stroke-linecap="round"/>
    <path d="M149 84C149 84 150 83 152 83" stroke="black" stroke-width="1" stroke-linecap="round"/>
    <path d="M161 84C161 84 160 83 158 83" stroke="black" stroke-width="1" stroke-linecap="round"/>
    <path d="M155 85C155 85 154 94 152 95C150 96 148 94 146 95C144 96 145 99 145 99" stroke="#5C3A22" stroke-width="3" stroke-linecap="round"/>

    <!-- Chair -->
    <rect x="145" y="130" width="20" height="5" rx="2" fill="#F59E0B" stroke="black" stroke-width="1"/>
    <path d="M147 135L142 160" stroke="black" stroke-width="2" stroke-linecap="round"/>
    <path d="M163 135L168 160" stroke="black" stroke-width="2" stroke-linecap="round"/>

    <!-- Location Pin -->
    <circle cx="100" cy="100" r="25" fill="#FF5252" stroke="black" stroke-width="3" fill-opacity="0.4"/>
    <path d="M100 65C87.2975 65 77 75.2975 77 88C77 97.9346 83.7764 106.374 93 108.885V130C93 132.761 96.2386 135 100 135C103.761 135 107 132.761 107 130V108.885C116.224 106.374 123 97.9346 123 88C123 75.2975 112.703 65 100 65Z" fill="#FF5252" stroke="black" stroke-width="3"/>
    <circle cx="100" cy="88" r="8" fill="white" stroke="black" stroke-width="2"/>

    <!-- Bus Stop -->
    <rect x="175" y="115" width="5" height="40" fill="#F59E0B" stroke="black" stroke-width="1"/>
    <rect x="170" y="115" width="15" height="10" rx="2" fill="#F59E0B" stroke="black" stroke-width="1"/>

    <!-- Plant -->
    <path d="M25 150C25 150 30 120 45 135" stroke="#55A630" stroke-width="3" stroke-linecap="round"/>
    <path d="M25 150C25 150 15 120 5 140" stroke="#55A630" stroke-width="3" stroke-linecap="round"/>
    <rect x="20" y="150" width="10" height="15" rx="2" fill="#7C3AED" stroke="black" stroke-width="1"/>
  </g>
  <defs>
    <clipPath id="clip0_123_456">
      <rect width="200" height="200" fill="white"/>
    </clipPath>
  </defs>
</svg> 